<svg xmlns="http://www.w3.org/2000/svg" version="1.1" xmlns:xlink="http://www.w3.org/1999/xlink" xmlns:svgjs="http://svgjs.dev/svgjs" width="2000" height="2007" viewBox="0 0 2000 2007"><g transform="matrix(1,0,0,1,0,-3.5708124157366683)"><svg viewBox="0 0 280 281" data-background-color="#ffffff" preserveAspectRatio="xMidYMid meet" height="2007" width="2000" xmlns="http://www.w3.org/2000/svg" xmlns:xlink="http://www.w3.org/1999/xlink"><g id="tight-bounds" transform="matrix(1,0,0,1,0,0.5000059054228814)"><svg viewBox="0 0 280 280" height="280" width="280"><g><svg viewBox="0 0 280 280" height="280" width="280"><g><svg viewBox="0 0 280 280" height="280" width="280"><g id="textblocktransform"><svg viewBox="0 0 280 280" height="280" width="280" id="textblock"><g><svg viewBox="0 0 280 280" height="280" width="280"><g transform="matrix(1,0,0,1,55.029335127416516,55.029335127416516)"><svg viewBox="0 0 169.94132974516697 169.94132974516697" height="169.94132974516697" width="169.94132974516697"><g id="icon-0"><circle r="85" cx="84.97066487258348" cy="84.97066487258348" fill="#000000" data-fill-palette-color="accent"></circle><svg xmlns="http://www.w3.org/2000/svg" xmlns:xlink="http://www.w3.org/1999/xlink" version="1.1" x="25.491199461775047" y="25.49119946177504" viewBox="7.992266092252324 5.0003286859116365 84.01765212579251 89.99971373864814" enable-background="new 0 0 100 100" xml:space="preserve" height="118.95893082161687" width="118.95893082161687" class="icon-jxe-0" data-fill-palette-color="quaternary" id="jxe-0"><path d="M91.722 45.552L73.091 27.512C73.07 27.491 73.041 27.484 73.018 27.466 72.995 27.447 72.982 27.42 72.957 27.404L39.317 5.15A0.96 0.96 0 0 0 38.098 5.308L8.228 38.876A0.93 0.93 0 0 0 7.996 39.578 0.95 0.95 0 0 0 8.36 40.235L12.945 43.845V71.585C12.945 71.898 13.057 72.165 13.283 72.336L43.197 94.813A0.9 0.9 0 0 0 43.755 95C43.801 95 43.921 94.996 44.042 94.959L86.427 81.946C86.833 81.821 87.124 81.453 87.124 81.049V45.413C87.124 45.175 87.008 44.938 86.814 44.746L72.049 30.15 72.522 29.57 90.42 46.901A0.933 0.933 0 0 0 91.745 46.879 0.935 0.935 0 0 0 91.722 45.552M14.922 45.326L41.383 66.259A0.86 0.86 0 0 0 41.934 66.461C42.216 66.461 42.229 66.336 42.41 66.117L42.616 65.557V92.351L14.922 71.117zM41.761 64.215L10.292 39.378 38.959 7.163 71.055 28.396zM85.147 80.356L44.594 92.724V63.263L70.632 31.598 85.146 45.804V80.356z" fill="#ffffff" data-fill-palette-color="quaternary"></path></svg></g></svg></g><g id="text-0"><path d="M33.961 105.724v0l-1.415 4.268c-0.042 0.126-0.126 0.168-0.252 0.126v0l-26.071-8.729c-0.101-0.033-0.134-0.1-0.101-0.201v0l2.423-7.307c0.77-2.323 2.088-3.926 3.953-4.81 1.867-0.89 4.019-0.931 6.454-0.123v0c1.781 0.591 3.216 1.458 4.304 2.601v0c1.078 1.154 1.783 2.418 2.117 3.793 0.34 1.377 0.288 2.733-0.154 4.067v0l-0.961 2.899 9.573 3.174c0.126 0.042 0.169 0.122 0.13 0.242zM13.049 95.374v0l-0.924 2.911 7.535 2.498 0.961-2.898c0.267-0.806 0.112-1.633-0.466-2.481-0.572-0.846-1.478-1.475-2.718-1.887v0c-0.988-0.328-1.888-0.333-2.699-0.014-0.819 0.322-1.383 0.946-1.689 1.871z" fill="#000000" data-fill-palette-color="primary"></path><path d="M45.793 80.109v0l-2.472 3.803c-0.058 0.089-0.142 0.097-0.253 0.025v0l-23.009-15.049c-0.089-0.058-0.105-0.131-0.047-0.22v0l4.407-6.78c0.788-1.212 1.807-2.135 3.057-2.77v0c1.251-0.634 2.571-0.931 3.96-0.891 1.389 0.041 2.712 0.47 3.969 1.286v0c0.817 0.531 1.478 1.139 1.983 1.823v0c0.505 0.684 0.876 1.341 1.115 1.971 0.245 0.634 0.387 1.157 0.427 1.57v0c2.133-0.338 4.106 0.083 5.919 1.261v0l6.902 4.438c0.111 0.072 0.131 0.164 0.059 0.275v0l-2.472 3.804c-0.058 0.089-0.12 0.112-0.187 0.068v0l-6.947-4.515c-0.806-0.524-1.688-0.694-2.646-0.51-0.964 0.18-1.715 0.685-2.253 1.513v0l-1.442 2.219 9.845 6.446c0.111 0.072 0.14 0.15 0.085 0.233zM28.43 64.495v0l-1.875 2.886 5.279 3.431 1.876-2.886c0.448-0.689 0.592-1.47 0.43-2.342-0.163-0.881-0.614-1.562-1.353-2.042v0c-0.712-0.463-1.498-0.598-2.358-0.406-0.862 0.183-1.528 0.636-1.999 1.359z" fill="#000000" data-fill-palette-color="primary"></path><path d="M66.644 56.099v0c-1.054 0.95-2.271 1.557-3.651 1.819v0c-1.37 0.253-2.73 0.171-4.079-0.246-1.354-0.422-2.519-1.175-3.496-2.258v0l-8.471-9.452c-0.995-1.103-1.622-2.333-1.881-3.689v0c-0.282-1.362-0.219-2.713 0.188-4.054 0.407-1.341 1.133-2.482 2.177-3.423v0c1.083-0.977 2.296-1.588 3.637-1.834v0c1.351-0.254 2.695-0.171 4.03 0.25 1.331 0.416 2.489 1.171 3.475 2.264v0l8.53 9.399c0.977 1.083 1.611 2.311 1.902 3.683v0c0.285 1.386 0.232 2.747-0.161 4.084-0.393 1.337-1.126 2.489-2.2 3.457zM63.413 52.516v0c0.601-0.542 0.903-1.256 0.906-2.143 0.004-0.887-0.27-1.636-0.82-2.247v0l-8.523-9.405c-0.591-0.655-1.3-1.02-2.127-1.096-0.827-0.085-1.56 0.161-2.2 0.739v0c-0.611 0.551-0.931 1.246-0.96 2.084-0.039 0.838 0.246 1.595 0.855 2.27v0l8.501 9.425c0.582 0.645 1.305 1.006 2.169 1.084 0.855 0.077 1.588-0.16 2.199-0.711z" fill="#000000" data-fill-palette-color="primary"></path><path d="M87.334 41.211v0l-3.991 2.071c-0.118 0.061-0.207 0.033-0.268-0.085v0l-12.593-24.439c-0.049-0.094-0.026-0.166 0.068-0.215v0l6.833-3.546c2.172-1.127 4.234-1.357 6.187-0.689 1.959 0.665 3.529 2.136 4.711 4.413v0c0.864 1.666 1.288 3.288 1.27 4.866v0c-0.033 1.578-0.409 2.977-1.129 4.195-0.717 1.224-1.7 2.16-2.947 2.807v0l-2.711 1.406 4.646 8.953c0.061 0.118 0.036 0.206-0.076 0.263zM79.569 19.208v0l-2.692 1.442 3.656 7.046 2.71-1.407c0.753-0.391 1.219-1.092 1.397-2.103 0.181-1.005-0.03-2.088-0.632-3.247v0c-0.48-0.924-1.121-1.555-1.924-1.893-0.812-0.341-1.65-0.287-2.515 0.162z" fill="#000000" data-fill-palette-color="primary"></path><path d="M134.945 28.115v0l-4.535 0.092c-0.106 0.002-0.16-0.063-0.163-0.196v0l-0.481-27.489c-0.002-0.106 0.05-0.16 0.156-0.162v0l4.883-0.1c0.106-0.002 0.197 0.049 0.272 0.154v0l3.767 5.196 3.523-5.345c0.077-0.108 0.176-0.163 0.295-0.165v0l4.903-0.1c0.119-0.002 0.18 0.049 0.182 0.156v0l0.64 27.486c0.003 0.133-0.049 0.2-0.155 0.202v0l-4.535 0.092c-0.106 0.002-0.16-0.063-0.163-0.195v0l-0.456-20.416-4.073 6.181-4.291-6.011 0.376 20.418c0.003 0.133-0.046 0.2-0.145 0.202z" fill="#000000" data-fill-palette-color="primary"></path><path d="M160.182 29.332v0l11.635-25.4c0.052-0.096 0.126-0.132 0.223-0.107v0l5.627 1.442c0.103 0.026 0.154 0.094 0.153 0.204v0l-2.212 27.815c-0.02 0.132-0.088 0.183-0.203 0.153v0l-4.298-1.101c-0.122-0.031-0.173-0.113-0.153-0.245v0l0.303-2.942-5.281-1.353-1.14 2.727c-0.046 0.125-0.126 0.173-0.242 0.143v0l-4.317-1.107c-0.096-0.025-0.128-0.101-0.095-0.23zM171.55 24.801l1.202-11.296 0.136-1.494-0.531 1.393-4.536 10.441z" fill="#000000" data-fill-palette-color="primary"></path><path d="M193.123 41.908v0c-1.249-0.675-2.227-1.618-2.937-2.831v0c-0.698-1.206-1.07-2.511-1.117-3.916-0.044-1.411 0.28-2.758 0.974-4.042v0l0.874-1.619c0.069-0.128 0.162-0.161 0.279-0.098v0l3.956 2.138c0.088 0.047 0.097 0.135 0.027 0.263v0l-0.875 1.619c-0.413 0.764-0.511 1.567-0.294 2.408 0.214 0.832 0.683 1.443 1.406 1.833v0c0.735 0.397 1.512 0.452 2.331 0.163 0.828-0.291 1.442-0.807 1.843-1.548v0c0.467-0.863 0.31-1.92-0.469-3.17v0c-0.121-0.209-0.285-0.478-0.491-0.808-0.203-0.321-0.444-0.699-0.72-1.136v0c-0.286-0.433-0.562-0.858-0.828-1.272-0.263-0.421-0.52-0.824-0.771-1.208v0c-0.874-1.452-1.315-2.915-1.325-4.391-0.006-1.481 0.373-2.93 1.139-4.347v0c0.706-1.307 1.665-2.315 2.878-3.025v0c1.206-0.698 2.494-1.072 3.863-1.123 1.369-0.051 2.661 0.251 3.875 0.906v0c1.249 0.675 2.228 1.603 2.938 2.786v0c0.704 1.194 1.086 2.482 1.145 3.864 0.06 1.382-0.26 2.72-0.959 4.015v0l-1.561 2.888c-0.047 0.088-0.118 0.106-0.211 0.056v0l-3.955-2.138c-0.088-0.047-0.108-0.115-0.061-0.202v0l1.526-2.907c0.448-0.828 0.551-1.64 0.308-2.433-0.233-0.797-0.705-1.387-1.416-1.772v0c-0.723-0.391-1.492-0.448-2.305-0.171-0.816 0.268-1.428 0.781-1.838 1.539v0c-0.413 0.764-0.596 1.494-0.55 2.19 0.049 0.69 0.384 1.508 1.004 2.453v0c0.065 0.088 0.214 0.315 0.445 0.682 0.235 0.361 0.495 0.765 0.781 1.213 0.289 0.442 0.552 0.841 0.789 1.196 0.235 0.361 0.378 0.577 0.429 0.65v0c0.814 1.284 1.305 2.586 1.474 3.905 0.169 1.32-0.122 2.674-0.872 4.063v0c-0.725 1.342-1.684 2.377-2.876 3.104v0c-1.207 0.727-2.5 1.118-3.878 1.172-1.378 0.054-2.704-0.262-3.975-0.949z" fill="#000000" data-fill-palette-color="primary"></path><path d="M216.909 58.813v0l-3.325-3.055c-0.088-0.081-0.087-0.17 0.002-0.267v0l15.442-16.813-3.824-3.513c-0.098-0.09-0.104-0.181-0.019-0.273v0l3.058-3.27c0.072-0.078 0.147-0.081 0.225-0.01v0l11.193 10.282c0.107 0.099 0.125 0.187 0.054 0.265v0l-3.028 3.297c-0.085 0.093-0.167 0.103-0.245 0.031v0l-3.868-3.553-15.413 16.84c-0.09 0.098-0.174 0.111-0.252 0.039z" fill="#000000" data-fill-palette-color="primary"></path><path d="M236.314 82.891v0l-7.313-10.676c-0.06-0.088-0.035-0.169 0.074-0.243v0l22.704-15.506c0.088-0.06 0.161-0.046 0.221 0.042v0l7.269 10.61c0.056 0.082 0.03 0.161-0.08 0.236v0l-3.693 2.53c-0.082 0.056-0.151 0.043-0.207-0.039v0l-4.643-6.778-5.162 3.535 4.643 6.779c0.056 0.082 0.041 0.153-0.047 0.213v0l-3.719 2.596c-0.082 0.056-0.151 0.043-0.208-0.039v0l-4.665-6.811-5.778 3.958 4.666 6.811c0.056 0.082 0.032 0.159-0.071 0.23v0l-3.775 2.586c-0.088 0.06-0.159 0.049-0.216-0.034z" fill="#000000" data-fill-palette-color="primary"></path><path d="M243.942 99.714v0l-1.537-4.268c-0.036-0.1 0.008-0.172 0.134-0.217v0l25.894-9.24c0.1-0.036 0.168-0.004 0.204 0.096v0l2.74 7.608c0.49 1.36 0.61 2.73 0.359 4.11v0c-0.25 1.38-0.811 2.611-1.683 3.694-0.872 1.082-2.013 1.877-3.423 2.385v0c-0.917 0.33-1.801 0.49-2.651 0.478v0c-0.85-0.011-1.598-0.112-2.244-0.302-0.653-0.188-1.156-0.391-1.509-0.608v0c-1.02 1.904-2.547 3.222-4.581 3.954v0l-7.707 2.818c-0.125 0.045-0.21 0.005-0.255-0.12v0l-1.537-4.267c-0.036-0.1-0.016-0.163 0.059-0.191v0l7.795-2.807c0.905-0.326 1.573-0.926 2.006-1.8 0.438-0.877 0.49-1.78 0.155-2.71v0l-0.896-2.49-11.085 3.95c-0.125 0.045-0.204 0.021-0.238-0.073zM266.875 95.314v0l-1.166-3.238-5.924 2.134 1.166 3.238c0.279 0.774 0.814 1.36 1.606 1.758 0.8 0.402 1.616 0.454 2.445 0.155v0c0.799-0.288 1.381-0.832 1.748-1.633 0.375-0.798 0.417-1.602 0.125-2.414z" fill="#000000" data-fill-palette-color="primary"></path><path d="M11.424 139.889c0-1.791 1.452-3.243 3.243-3.243 1.791 0 3.243 1.452 3.243 3.243 0 1.791-1.452 3.243-3.243 3.243-1.791 0-3.243-1.452-3.243-3.243z" fill="#000000" data-fill-palette-color="primary"></path><path d="M262.092 139.889c0-1.791 1.452-3.243 3.243-3.243 1.791 0 3.243 1.452 3.243 3.243 0 1.791-1.452 3.243-3.243 3.243-1.791 0-3.243-1.452-3.243-3.243z" fill="#000000" data-fill-palette-color="primary"></path></g><g id="text-1"><path d="M7.354 182.996v0l-1.441-4.332c-0.042-0.126 0-0.21 0.126-0.252v0l26.537-8.745c0.101-0.033 0.168 0 0.201 0.101v0l2.468 7.418c0.787 2.366 0.688 4.474-0.296 6.326-0.976 1.855-2.704 3.195-5.183 4.02v0c-1.806 0.601-3.501 0.767-5.086 0.497v0c-1.57-0.288-2.912-0.887-4.026-1.795-1.115-0.915-1.899-2.052-2.35-3.411v0l-0.977-2.936-9.721 3.235c-0.126 0.042-0.21 0-0.252-0.126zM30.668 178.709v0l-1.015-2.922-7.654 2.546 0.977 2.935c0.272 0.818 0.902 1.398 1.889 1.741 0.988 0.342 2.107 0.305 3.359-0.111v0c1.007-0.335 1.744-0.881 2.213-1.638 0.468-0.757 0.545-1.607 0.231-2.551z" fill="#000000" data-fill-palette-color="primary"></path><path d="M22.311 215.045v0l-2.514-3.859c-0.058-0.089-0.031-0.17 0.08-0.242v0l23.458-15.181c0.089-0.058 0.162-0.042 0.22 0.047v0l4.484 6.885c0.803 1.234 1.241 2.563 1.314 3.987v0c0.069 1.419-0.198 2.764-0.802 4.036-0.61 1.275-1.554 2.329-2.832 3.161v0c-0.828 0.539-1.664 0.902-2.509 1.088v0c-0.844 0.186-1.61 0.261-2.297 0.226-0.688-0.035-1.233-0.119-1.637-0.252v0c-0.558 2.12-1.76 3.781-3.604 4.982v0l-6.963 4.582c-0.111 0.072-0.203 0.053-0.276-0.058v0l-2.513-3.859c-0.058-0.089-0.053-0.155 0.013-0.199v0l7.052-4.592c0.822-0.536 1.346-1.288 1.569-2.256 0.224-0.969 0.061-1.875-0.489-2.72v0l-1.46-2.242-10.041 6.491c-0.111 0.072-0.196 0.064-0.253-0.025zM43.963 205.349v0l-1.906-2.926-5.359 3.49 1.905 2.926c0.456 0.7 1.124 1.155 2.005 1.365 0.881 0.21 1.696 0.071 2.446-0.417v0c0.722-0.47 1.174-1.144 1.354-2.022 0.181-0.877 0.032-1.683-0.445-2.416z" fill="#000000" data-fill-palette-color="primary"></path><path d="M47.421 245.195v0c-1.069-0.963-1.809-2.128-2.219-3.496v0c-0.4-1.359-0.458-2.742-0.175-4.147 0.283-1.414 0.921-2.673 1.915-3.777v0l8.648-9.546c1.012-1.124 2.192-1.89 3.542-2.299v0c1.339-0.427 2.709-0.506 4.108-0.237 1.399 0.269 2.629 0.881 3.688 1.835v0c1.104 0.994 1.85 2.157 2.24 3.489v0c0.394 1.336 0.452 2.7 0.172 4.09-0.284 1.395-0.927 2.65-1.929 3.764v0l-8.59 9.6c-0.994 1.104-2.17 1.875-3.527 2.312v0c-1.372 0.434-2.752 0.525-4.141 0.273-1.394-0.256-2.638-0.876-3.732-1.861zM50.702 241.551v0c0.611 0.55 1.367 0.781 2.269 0.691 0.902-0.09 1.632-0.445 2.191-1.066v0l8.589-9.6c0.603-0.67 0.902-1.428 0.895-2.272-0.007-0.845-0.335-1.56-0.985-2.146v0c-0.616-0.555-1.35-0.805-2.202-0.751-0.852 0.054-1.588 0.426-2.21 1.116v0l-8.618 9.573c-0.595 0.66-0.885 1.429-0.872 2.307 0.013 0.877 0.328 1.593 0.943 2.148z" fill="#000000" data-fill-palette-color="primary"></path><path d="M74.473 263.516v0l-4.054-2.101c-0.118-0.061-0.146-0.15-0.085-0.268v0l12.923-24.773c0.049-0.094 0.12-0.117 0.215-0.068v0l6.942 3.596c2.214 1.147 3.613 2.727 4.198 4.741 0.594 2.01 0.29 4.176-0.911 6.495v0c-0.875 1.69-1.975 2.991-3.299 3.904v0c-1.327 0.889-2.706 1.395-4.137 1.52-1.437 0.122-2.792-0.147-4.064-0.806v0l-2.747-1.423-4.712 9.097c-0.061 0.118-0.15 0.146-0.269 0.086zM88.195 244.186v0l-2.765-1.388-3.711 7.163 2.747 1.423c0.765 0.397 1.621 0.373 2.568-0.07 0.947-0.443 1.723-1.251 2.33-2.422v0c0.488-0.942 0.636-1.848 0.444-2.716-0.192-0.869-0.73-1.532-1.613-1.99z" fill="#000000" data-fill-palette-color="primary"></path><path d="M134.281 279.72v0l-4.604-0.096c-0.106-0.002-0.158-0.07-0.155-0.202v0l0.659-27.933c0.002-0.106 0.056-0.158 0.163-0.156v0l4.962 0.103c0.106 0.002 0.198 0.057 0.275 0.165v0l3.598 5.437 3.801-5.284c0.082-0.104 0.182-0.155 0.302-0.153v0l4.992 0.104c0.113 0.002 0.168 0.057 0.166 0.163v0l-0.501 27.936c-0.003 0.133-0.057 0.198-0.163 0.196v0l-4.604-0.096c-0.106-0.002-0.158-0.07-0.155-0.202v0l0.391-20.746-4.395 6.107-4.098-6.283-0.471 20.744c-0.003 0.133-0.057 0.198-0.163 0.196z" fill="#000000" data-fill-palette-color="primary"></path><path d="M166.903 277.286v0l-2.048-28.319c-0.001-0.109 0.05-0.177 0.153-0.203v0l5.714-1.464c0.103-0.026 0.18 0.009 0.233 0.105v0l11.626 25.865c0.046 0.125 0.011 0.203-0.105 0.232v0l-4.365 1.118c-0.128 0.033-0.216-0.013-0.261-0.138v0l-1.162-2.773-5.368 1.375 0.314 2.99c0.02 0.132-0.028 0.212-0.143 0.242v0l-4.384 1.123c-0.103 0.026-0.171-0.025-0.204-0.153zM174.816 267.691l-4.452-10.647-0.594-1.398 0.199 1.499 1.06 11.516z" fill="#000000" data-fill-palette-color="primary"></path><path d="M206.781 263.286v0c-1.266 0.683-2.613 0.988-4.039 0.914v0c-1.409-0.084-2.724-0.496-3.946-1.238-1.225-0.748-2.19-1.776-2.896-3.083v0l-0.883-1.637c-0.069-0.128-0.046-0.224 0.071-0.287v0l4.018-2.169c0.093-0.05 0.175-0.011 0.244 0.117v0l0.883 1.637c0.422 0.782 1.048 1.314 1.879 1.597 0.831 0.283 1.611 0.227 2.341-0.166v0c0.747-0.403 1.227-1.035 1.44-1.897 0.213-0.861 0.115-1.671-0.294-2.429v0c-0.469-0.87-1.452-1.322-2.949-1.359v0c-0.25-0.016-0.569-0.028-0.958-0.037-0.383-0.012-0.839-0.018-1.367-0.02v0c-0.528-0.001-1.043-0.006-1.544-0.014-0.502-0.008-0.987-0.014-1.456-0.017v0c-1.714-0.062-3.202-0.502-4.465-1.32-1.263-0.818-2.283-1.948-3.061-3.389v0c-0.718-1.331-1.04-2.709-0.966-4.136v0c0.084-1.409 0.482-2.709 1.195-3.9 0.719-1.194 1.695-2.124 2.926-2.789v0c1.272-0.687 2.609-1.001 4.012-0.944v0c1.403 0.072 2.707 0.464 3.913 1.178 1.209 0.719 2.17 1.738 2.882 3.056v0l1.582 2.933c0.05 0.093 0.029 0.165-0.064 0.215v0l-4.018 2.168c-0.093 0.05-0.165 0.029-0.216-0.064v0l-1.617-2.914c-0.454-0.84-1.085-1.381-1.894-1.623-0.809-0.242-1.575-0.167-2.298 0.223v0c-0.729 0.394-1.206 1.012-1.429 1.856-0.223 0.844-0.126 1.651 0.29 2.421v0c0.419 0.776 0.936 1.337 1.552 1.683 0.616 0.346 1.497 0.518 2.642 0.518v0c0.119-0.004 0.395-0.002 0.828 0.006 0.439 0.004 0.927 0.008 1.465 0.012 0.537 0.004 1.024 0.005 1.46 0.003 0.436-0.002 0.699-0.004 0.787-0.007v0c1.546 0.017 2.925 0.324 4.137 0.922 1.217 0.594 2.205 1.594 2.964 3v0c0.737 1.366 1.083 2.761 1.039 4.187v0c-0.059 1.426-0.447 2.739-1.163 3.939-0.722 1.203-1.731 2.155-3.027 2.854z" fill="#000000" data-fill-palette-color="primary"></path><path d="M235.847 241.684v0l-3.38 3.099c-0.088 0.081-0.177 0.072-0.266-0.025v0l-15.679-17.096-3.892 3.57c-0.098 0.09-0.191 0.086-0.282-0.012v0l-3.043-3.377c-0.072-0.078-0.068-0.153 0.01-0.225v0l11.385-10.441c0.108-0.099 0.197-0.109 0.269-0.031v0l3.072 3.35c0.09 0.098 0.095 0.182 0.017 0.255v0l-3.936 3.61 15.707 17.069c0.09 0.098 0.095 0.182 0.017 0.254z" fill="#000000" data-fill-palette-color="primary"></path><path d="M259.447 212.805v0l-7.441 10.831c-0.06 0.087-0.145 0.094-0.254 0.018v0l-23.007-15.854c-0.087-0.06-0.101-0.134-0.042-0.221v0l7.396-10.765c0.06-0.087 0.145-0.094 0.254-0.018v0l3.747 2.574c0.087 0.06 0.101 0.134 0.041 0.221v0l-4.72 6.87 5.239 3.599 4.72-6.87c0.06-0.087 0.134-0.101 0.221-0.041v0l3.818 2.575c0.087 0.06 0.101 0.134 0.042 0.221v0l-4.743 6.903 5.862 4.028 4.743-6.904c0.06-0.087 0.145-0.094 0.254-0.018v0l3.829 2.63c0.087 0.06 0.101 0.134 0.041 0.221z" fill="#000000" data-fill-palette-color="primary"></path><path d="M270.268 189.789v0l-1.566 4.331c-0.036 0.1-0.117 0.127-0.242 0.082v0l-26.247-9.58c-0.1-0.036-0.132-0.104-0.096-0.203v0l2.795-7.727c0.501-1.384 1.298-2.535 2.391-3.45v0c1.091-0.91 2.326-1.507 3.705-1.791 1.385-0.282 2.795-0.163 4.229 0.355v0c0.929 0.336 1.722 0.785 2.379 1.348v0c0.657 0.562 1.179 1.128 1.565 1.698 0.386 0.57 0.648 1.056 0.784 1.457v0c2.029-0.832 4.078-0.873 6.149-0.124v0l7.852 2.798c0.125 0.045 0.165 0.13 0.119 0.255v0l-1.567 4.331c-0.036 0.1-0.092 0.136-0.166 0.109v0l-7.913-2.863c-0.923-0.334-1.838-0.298-2.747 0.107-0.908 0.405-1.534 1.081-1.876 2.029v0l-0.91 2.516 11.229 4.105c0.125 0.045 0.169 0.118 0.133 0.217zM249.486 178.347v0l-1.188 3.283 6.015 2.176 1.188-3.283c0.284-0.786 0.245-1.593-0.118-2.423-0.363-0.829-0.965-1.396-1.807-1.701v0c-0.811-0.293-1.62-0.248-2.43 0.137-0.809 0.384-1.362 0.988-1.66 1.811z" fill="#000000" data-fill-palette-color="primary"></path></g></svg></g></svg></g></svg></g><g></g></svg></g><defs></defs></svg><rect width="280" height="280" fill="none" stroke="none" visibility="hidden"></rect></g></svg></g></svg>