<svg version="1.0" xmlns="http://www.w3.org/2000/svg" viewBox="0 0 1280.000000 1280.000000" preserveAspectRatio="xMidYMid meet" className="fill-logo">
	<g transform="translate(0.000000,1280.000000) scale(0.100000,-0.100000)" stroke="none">
		<path d="M2717 12780 c-1163 -105 -2158 -880 -2542 -1982 -60 -172 -109 -373
-137 -562 l-23 -151 0 -3685 0 -3685 23 -151 c146 -980 737 -1800 1611 -2238
289 -145 561 -231 906 -288 l140 -23 3640 -3 c2643 -2 3674 0 3764 8 1154 104
2152 889 2532 1990 75 217 128 464 149 691 8 90 10 1121 8 3764 l-3 3640 -23
140 c-110 673 -390 1227 -851 1685 -451 447 -1008 725 -1666 832 l-140 23
-3650 1 c-2007 1 -3689 -2 -3738 -6z m6253 -2743 c142 -25 331 -74 429 -112
565 -215 962 -656 1107 -1226 69 -274 72 -647 8 -926 -25 -111 -213 -792 -241
-873 -72 -210 -183 -436 -306 -621 -445 -672 -1189 -1165 -1957 -1298 -164
-29 -319 -41 -520 -41 l-175 0 -301 -1098 -302 -1097 -621 -3 c-341 -1 -621 2
-621 6 0 5 27 105 59 223 33 118 240 871 461 1674 220 803 403 1468 406 1477
5 15 57 17 677 21 634 3 677 5 762 24 491 112 940 440 1188 868 74 128 110
228 212 599 118 431 125 462 125 591 0 132 -12 190 -62 294 -53 111 -134 192
-250 249 -171 84 70 76 -2411 82 -1215 3 -2214 2 -2219 -1 -9 -6 -128 -430
-533 -1904 -203 -739 -396 -1442 -401 -1457 -5 -17 -44 -18 -626 -18 l-620 0
5 28 c3 15 183 673 401 1462 217 789 497 1806 621 2260 125 454 229 828 232
833 2 4 1214 6 2691 4 2457 -3 2695 -5 2782 -20z m-360 -1917 c0 -26 -163
-602 -186 -658 -94 -224 -367 -459 -649 -559 l-80 -28 -925 -5 -925 -5 -73
-265 c-123 -449 -349 -1268 -447 -1625 -52 -187 -204 -743 -340 -1235 -135
-492 -252 -919 -261 -947 l-15 -53 -609 0 c-492 0 -610 3 -610 13 0 7 34 136
76 287 41 151 111 403 154 560 43 157 176 638 295 1070 119 432 229 832 245
890 16 58 151 548 300 1090 149 542 301 1093 337 1225 36 132 67 243 70 248 7
11 3643 9 3643 -3z" />
	</g>
</svg>
